M48
; DRILL file KiCad 10.0.3 date 2026-06-22T18:21:11
; FORMAT={-:-/ absolute / metric / decimal}
; #@! TF.CreationDate,2026-06-22T18:21:11+05:30
; #@! TF.GenerationSoftware,Kicad,Pcbnew,10.0.3
; #@! TF.FileFunction,Plated,1,2,PTH
FMAT,2
METRIC
; #@! TA.AperFunction,Plated,PTH,ViaDrill
T1C0.300
; #@! TA.AperFunction,Plated,PTH,ComponentDrill
T2C0.800
; #@! TA.AperFunction,Plated,PTH,ComponentDrill
T3C1.000
; #@! TA.AperFunction,Plated,PTH,ComponentDrill
T4C1.500
; #@! TA.AperFunction,Plated,PTH,ComponentDrill
T5C2.600
%
G90
G05
T1
X66.5Y-99.8
X85.5Y-78.9
X90.5Y-65.5
X92.01Y-76.5
X92.381Y-103.119
T2
X82.69Y-69.35
X82.69Y-72.9
X82.69Y-76.45
X82.69Y-80.0
X82.69Y-83.55
X82.69Y-87.1
X82.69Y-90.65
X82.69Y-94.2
X82.69Y-97.75
X90.31Y-69.35
X90.31Y-72.9
X90.31Y-76.45
X90.31Y-80.0
X90.31Y-83.55
X90.31Y-87.1
X90.31Y-90.65
X90.31Y-94.2
X90.31Y-97.75
T3
X62.875Y-52.88
X62.875Y-55.42
X62.875Y-57.96
X62.875Y-60.5
X62.875Y-63.04
X62.875Y-65.58
X62.875Y-68.12
X63.5Y-78.5
X63.5Y-81.0
X63.5Y-83.5
X78.0Y-78.5
X78.0Y-83.5
X78.125Y-52.88
X78.125Y-55.42
X78.125Y-57.96
X78.125Y-60.5
X78.125Y-63.04
X78.125Y-65.58
X78.125Y-68.12
X103.5Y-54.88
X103.5Y-57.42
X103.5Y-59.96
X103.5Y-62.5
T4
X99.11Y-114.04
X99.15Y-75.04
X99.15Y-94.54
X105.46Y-111.5
X105.5Y-72.5
X105.5Y-92.0
X118.61Y-114.04
X118.65Y-75.04
X118.65Y-94.54
X124.96Y-111.5
X125.0Y-72.5
X125.0Y-92.0
X138.11Y-114.04
X138.15Y-75.04
X138.15Y-94.54
X144.46Y-111.5
X144.5Y-72.5
X144.5Y-92.0
T5
X71.0Y-75.4
X71.0Y-86.6
M30
