M48
; DRILL file KiCad 10.0.3 date 2026-06-22T18:21:11
; FORMAT={-:-/ absolute / metric / decimal}
; #@! TF.CreationDate,2026-06-22T18:21:11+05:30
; #@! TF.GenerationSoftware,Kicad,Pcbnew,10.0.3
; #@! TF.FileFunction,NonPlated,1,2,NPTH
FMAT,2
METRIC
; #@! TA.AperFunction,NonPlated,NPTH,ComponentDrill
T1C1.700
; #@! TA.AperFunction,NonPlated,NPTH,ComponentDrill
T2C4.000
%
G90
G05
T1
X97.84Y-116.58
X97.88Y-77.58
X97.88Y-97.08
X108.0Y-116.58
X108.04Y-77.58
X108.04Y-97.08
X117.34Y-116.58
X117.38Y-77.58
X117.38Y-97.08
X127.5Y-116.58
X127.54Y-77.58
X127.54Y-97.08
X136.84Y-116.58
X136.88Y-77.58
X136.88Y-97.08
X147.0Y-116.58
X147.04Y-77.58
X147.04Y-97.08
T2
X102.92Y-116.58
X102.96Y-77.58
X102.96Y-97.08
X122.42Y-116.58
X122.46Y-77.58
X122.46Y-97.08
X141.92Y-116.58
X141.96Y-77.58
X141.96Y-97.08
M30
